<?xml version="1.0" encoding="utf-8"?>
<svg viewBox="216.09996032714844 716.0000610351562 196.80003356933594 203.19989013671875" width="196.80003356933594" height="203.19989013671875" xmlns="http://www.w3.org/2000/svg"><g transform="matrix(1, 0, 0, 1, 0, 0)"><g transform="matrix(1, 0, 0, 1, 0, 0)">
				<path class="st13" d="M381.4,776.7c-14.3-23.7-39.3-37.8-66.9-37.8s-52.6,14.1-66.9,37.8l-19.5-11.8&#10;&#9;&#9;&#9;&#9;&#9;c8.8-14.6,21.1-26.8,35.8-35.3c15.3-8.9,32.8-13.6,50.6-13.6s35.4,4.7,50.6,13.6c14.6,8.5,27,20.7,35.8,35.3L381.4,776.7z" style="fill: rgb(84, 102, 175);"/>
			</g><path class="st2" d="M395.2,890.3l-9.9-2.2l11.6-53.3c5.5-25.1-0.6-50.9-16.7-70.9c-16.1-20-40.1-31.5-65.7-31.5&#10;&#9;&#9;&#9;&#9;s-49.6,11.5-65.7,31.5c-16.1,20-22.2,45.8-16.7,70.9l11.6,53.3l-9.9,2.2L222.2,837c-6.1-28.1,0.7-57,18.7-79.4&#10;&#9;&#9;&#9;&#9;s44.8-35.2,73.6-35.2s55.6,12.8,73.6,35.2s24.8,51.3,18.7,79.4L395.2,890.3z" style="fill: rgb(50, 51, 51);" transform="matrix(1, 0, 0, 1, 0, 0)"/><g transform="matrix(1, 0, 0, 1, 0, 0)">
					<path d="M 403.1000061035156 857.5 L 382.5 852 L 367.29998779296875 908.5 L 387.8999938964844 914 L 401.29998779296875 909.5 L 412.3999938964844 868.0999755859375 Z" class="st1" style="fill: rgb(92, 93, 93);"/>
					<path class="st2" d="M365,845.9l-15.9,59.2c-1.1,3.9,1.3,8,5.2,9l15.9,4.3c3.1,0.8,6.3-1,7.2-4.1l16.6-62.1&#10;&#9;&#9;&#9;&#9;&#9;&#9;c0.8-3.1-1-6.3-4.1-7.2l-15.9-4.3C370.1,839.6,366.1,841.9,365,845.9z" style="fill: rgb(50, 51, 51);"/>
					
						<path d="M 334.5 876.099976 H 410.5 V 882.999976 H 334.5 V 876.099976 Z" transform="matrix(0.2588 -0.9659 0.9659 0.2588 -573.5228 1011.7166)" class="st13" style="fill: rgb(84, 102, 175);"/>
					<path d="M 393.29998779296875 854.9000244140625 L 383.5 912.7999877929688 L 378.20001220703125 911.4000244140625 Z" class="st14" style="fill: rgb(63, 64, 63);"/>
				</g><path d="M 226 857.5 L 246.60000610351562 852 L 261.70001220703125 908.5 L 241.10000610351562 914 L 227.6999969482422 909.5 L 216.6999969482422 868.0999755859375 Z" class="st1" style="fill: rgb(92, 93, 93);" transform="matrix(1, 0, 0, 1, 0, 0)"/><path class="st2" d="M264,845.9l15.9,59.2c1.1,3.9-1.3,8-5.2,9l-15.9,4.3c-3.1,0.8-6.3-1-7.2-4.1L235,852.1&#10;&#9;&#9;&#9;&#9;&#9;&#9;c-0.8-3.1,1-6.3,4.1-7.2l15.9-4.3C258.9,839.6,263,841.9,264,845.9z" style="fill: rgb(50, 51, 51);" transform="matrix(1, 0, 0, 1, 0, 0)"/><path d="M 253.100006 841.599976 H 260.000006 V 917.599976 H 253.100006 V 841.599976 Z" transform="matrix(0.9659000039100647, -0.2587999701499939, 0.2587999701499939, 0.9659000039100647, -218.9075012207031, 96.37809753417969)" class="st13" style="fill: rgb(84, 102, 175);"/><path d="M 235.6999969482422 854.9000244140625 L 245.60000610351562 912.7999877929688 L 250.89999389648438 911.4000244140625 Z" class="st14" style="fill: rgb(63, 64, 63);" transform="matrix(1, 0, 0, 1, 0, 0)"/></g></svg>